<svg xmlns="http://www.w3.org/2000/svg" width="25" height="25" fill="none"><g clip-path="url(#a)"><path fill="#007AB9" d="M12.5 25C19.404 25 25 19.403 25 12.5 25 5.595 19.404 0 12.5 0S0 5.596 0 12.5C0 19.403 5.596 25 12.5 25"/><path fill="#F1F2F2" d="M19.969 13.506v5.153H16.98v-4.808c0-1.207-.432-2.032-1.514-2.032-.825 0-1.316.555-1.532 1.093-.079.192-.1.458-.1.728v5.019h-2.987s.04-8.143 0-8.986h2.988v1.273l-.02.03h.02v-.03c.397-.611 1.105-1.484 2.693-1.484 1.966 0 3.44 1.284 3.44 4.044M7.721 5.34c-1.022 0-1.69.67-1.69 1.552 0 .863.649 1.553 1.65 1.553h.02c1.042 0 1.69-.69 1.69-1.553-.02-.881-.648-1.552-1.67-1.552M6.209 18.659h2.987V9.673H6.209z"/></g><defs><clipPath id="a"><path fill="#fff" d="M0 0h25v25H0z"/></clipPath></defs></svg>